<svg width="1200" height="580" xmlns="http://www.w3.org/2000/svg" font-family="Inter, system-ui, sans-serif">
  <rect width="1200" height="580" fill="#0f172a"/>
  <rect width="1200" height="56" fill="#1e293b"/>
  <text x="24" y="33" fill="#f1f5f9" font-size="16" font-weight="700">Madin'Admin</text>
  <text x="200" y="33" fill="#94a3b8" font-size="13">Agents — Roster &amp; état</text>

  <text x="40" y="92" fill="#f1f5f9" font-size="18" font-weight="700">Équipe d'agents IA</text>
  <text x="40" y="112" fill="#64748b" font-size="13">9 agents spécialisés · Orchestrateur : Claude Code (Opus 4.7)</text>

  <!-- Agent cards - row 1 -->
  <!-- Diagnostiqueur -->
  <rect x="40" y="130" width="220" height="130" rx="10" fill="#1e293b"/>
  <rect x="40" y="130" width="220" height="4" rx="2" fill="#3b82f6"/>
  <text x="60" y="158" fill="#f1f5f9" font-size="14" font-weight="700">Diagnostiqueur</text>
  <rect x="140" y="143" width="72" height="20" rx="10" fill="#1e3a5f"/>
  <text x="176" y="157" fill="#93c5fd" font-size="11" text-anchor="middle">Opus 4.7</text>
  <text x="60" y="178" fill="#94a3b8" font-size="12">Éligibilité &amp; cadrage</text>
  <text x="60" y="198" fill="#64748b" font-size="11">→ diagnostics/</text>
  <circle cx="56" cy="238" r="5" fill="#22c55e"/>
  <text x="68" y="242" fill="#22c55e" font-size="11">Disponible</text>

  <!-- Monteur -->
  <rect x="276" y="130" width="220" height="130" rx="10" fill="#1e293b"/>
  <rect x="276" y="130" width="220" height="4" rx="2" fill="#8b5cf6"/>
  <text x="296" y="158" fill="#f1f5f9" font-size="14" font-weight="700">Monteur</text>
  <rect x="360" y="143" width="80" height="20" rx="10" fill="#2e1065"/>
  <text x="400" y="157" fill="#c4b5fd" font-size="11" text-anchor="middle">Sonnet 4.6</text>
  <text x="296" y="178" fill="#94a3b8" font-size="12">Rédaction du dossier</text>
  <text x="296" y="198" fill="#64748b" font-size="11">→ dossiers/</text>
  <circle cx="292" cy="238" r="5" fill="#22c55e"/>
  <text x="304" y="242" fill="#22c55e" font-size="11">Disponible</text>

  <!-- Documentaliste -->
  <rect x="512" y="130" width="220" height="130" rx="10" fill="#1e293b"/>
  <rect x="512" y="130" width="220" height="4" rx="2" fill="#06b6d4"/>
  <text x="532" y="158" fill="#f1f5f9" font-size="14" font-weight="700">Documentaliste</text>
  <rect x="648" y="143" width="80" height="20" rx="10" fill="#083344"/>
  <text x="688" y="157" fill="#67e8f9" font-size="11" text-anchor="middle">Sonnet 4.6</text>
  <text x="532" y="178" fill="#94a3b8" font-size="12">Pièces justificatives</text>
  <text x="532" y="198" fill="#64748b" font-size="11">→ checklists/</text>
  <circle cx="528" cy="238" r="5" fill="#f59e0b"/>
  <text x="540" y="242" fill="#f59e0b" font-size="11">En traitement</text>

  <!-- Contrôleur -->
  <rect x="748" y="130" width="220" height="130" rx="10" fill="#1e293b"/>
  <rect x="748" y="130" width="220" height="4" rx="2" fill="#ef4444"/>
  <text x="768" y="158" fill="#f1f5f9" font-size="14" font-weight="700">Contrôleur</text>
  <rect x="852" y="143" width="72" height="20" rx="10" fill="#450a0a"/>
  <text x="888" y="157" fill="#fca5a5" font-size="11" text-anchor="middle">Opus 4.7</text>
  <text x="768" y="178" fill="#94a3b8" font-size="12">Audit conformité</text>
  <text x="768" y="198" fill="#64748b" font-size="11">→ controles/</text>
  <circle cx="764" cy="238" r="5" fill="#22c55e"/>
  <text x="776" y="242" fill="#22c55e" font-size="11">Disponible</text>

  <!-- Suiveur -->
  <rect x="984" y="130" width="176" height="130" rx="10" fill="#1e293b"/>
  <rect x="984" y="130" width="176" height="4" rx="2" fill="#10b981"/>
  <text x="1004" y="158" fill="#f1f5f9" font-size="14" font-weight="700">Suiveur</text>
  <rect x="1088" y="143" width="80" height="20" rx="10" fill="#022c22"/>
  <text x="1128" y="157" fill="#6ee7b7" font-size="11" text-anchor="middle">Sonnet 4.6</text>
  <text x="1004" y="178" fill="#94a3b8" font-size="12">Post-dépôt</text>
  <text x="1004" y="198" fill="#64748b" font-size="11">→ suivi/</text>
  <circle cx="1000" cy="238" r="5" fill="#22c55e"/>
  <text x="1012" y="242" fill="#22c55e" font-size="11">Disponible</text>

  <!-- Row 2 -->
  <!-- Archiviste -->
  <rect x="40" y="290" width="220" height="130" rx="10" fill="#1e293b"/>
  <rect x="40" y="290" width="220" height="4" rx="2" fill="#f59e0b"/>
  <text x="60" y="318" fill="#f1f5f9" font-size="14" font-weight="700">Archiviste</text>
  <rect x="148" y="303" width="72" height="20" rx="10" fill="#451a03"/>
  <text x="184" y="317" fill="#fcd34d" font-size="11" text-anchor="middle">Opus 4.7</text>
  <text x="60" y="338" fill="#94a3b8" font-size="12">Reporting &amp; archivage</text>
  <text x="60" y="358" fill="#64748b" font-size="11">→ archives/</text>
  <circle cx="56" cy="398" r="5" fill="#22c55e"/>
  <text x="68" y="402" fill="#22c55e" font-size="11">Disponible</text>

  <!-- Veilleur -->
  <rect x="276" y="290" width="220" height="130" rx="10" fill="#1e293b"/>
  <rect x="276" y="290" width="220" height="4" rx="2" fill="#a78bfa"/>
  <text x="296" y="318" fill="#f1f5f9" font-size="14" font-weight="700">Veilleur</text>
  <rect x="368" y="303" width="72" height="20" rx="10" fill="#2e1065"/>
  <text x="404" y="317" fill="#c4b5fd" font-size="11" text-anchor="middle">Opus 4.7</text>
  <text x="296" y="338" fill="#94a3b8" font-size="12">Veille appels à projets</text>
  <text x="296" y="358" fill="#64748b" font-size="11">Surveillance continue</text>
  <circle cx="292" cy="398" r="5" fill="#22c55e"/>
  <text x="304" y="402" fill="#22c55e" font-size="11">Disponible</text>

  <!-- OCR -->
  <rect x="512" y="290" width="220" height="130" rx="10" fill="#1e293b"/>
  <rect x="512" y="290" width="220" height="4" rx="2" fill="#64748b"/>
  <text x="532" y="318" fill="#f1f5f9" font-size="14" font-weight="700">OCR</text>
  <rect x="580" y="303" width="80" height="20" rx="10" fill="#1e293b" stroke="#475569" stroke-width="1"/>
  <text x="620" y="317" fill="#94a3b8" font-size="11" text-anchor="middle">Sonnet 4.6</text>
  <text x="532" y="338" fill="#94a3b8" font-size="12">Extraction documents</text>
  <text x="532" y="358" fill="#64748b" font-size="11">PDF · DOCX · scans</text>
  <circle cx="528" cy="398" r="5" fill="#22c55e"/>
  <text x="540" y="402" fill="#22c55e" font-size="11">Disponible</text>

  <!-- Courrier -->
  <rect x="748" y="290" width="220" height="130" rx="10" fill="#1e293b"/>
  <rect x="748" y="290" width="220" height="4" rx="2" fill="#fb923c"/>
  <text x="768" y="318" fill="#f1f5f9" font-size="14" font-weight="700">Courrier</text>
  <rect x="844" y="303" width="80" height="20" rx="10" fill="#431407"/>
  <text x="884" y="317" fill="#fdba74" font-size="11" text-anchor="middle">Sonnet 4.6</text>
  <text x="768" y="338" fill="#94a3b8" font-size="12">Rédaction administrative</text>
  <text x="768" y="358" fill="#64748b" font-size="11">Registre officiel</text>
  <circle cx="764" cy="398" r="5" fill="#22c55e"/>
  <text x="776" y="402" fill="#22c55e" font-size="11">Disponible</text>

  <text x="600" y="560" fill="#475569" font-size="12" text-anchor="middle">Madin'Admin · Vue agents · 8 disponibles · 1 en traitement</text>
</svg>
